<mxfile host="65bd71144e" scale="2" border="30">
    <diagram id="0QhtwqMjpmc_AO-MrRb4" name="第 1 页">
        <mxGraphModel dx="1374" dy="790" grid="1" gridSize="10" guides="1" tooltips="1" connect="1" arrows="1" fold="1" page="1" pageScale="1" pageWidth="1654" pageHeight="2336" background="#FFFFFF" math="0" shadow="0">
            <root>
                <mxCell id="0"/>
                <mxCell id="1" parent="0"/>
                <mxCell id="978" value="" style="group;rounded=1;" vertex="1" connectable="0" parent="1">
                    <mxGeometry x="450" y="372.5" width="170" height="65" as="geometry"/>
                </mxCell>
                <mxCell id="979" value="" style="whiteSpace=wrap;html=1;fontColor=#FFFFFF;strokeColor=none;fillColor=#EDF2F4;rounded=1;" vertex="1" parent="978">
                    <mxGeometry width="170" height="65" as="geometry"/>
                </mxCell>
                <mxCell id="980" value="&lt;b&gt;&lt;font color=&quot;#345253&quot;&gt;data 02&lt;/font&gt;&lt;/b&gt;" style="shape=note;whiteSpace=wrap;html=1;backgroundOutline=1;darkOpacity=0.05;fontFamily=Tahoma;fontColor=#FFFFFF;strokeWidth=2;size=13;strokeColor=#FFFFFF;fillColor=#FFD966;rounded=1;" vertex="1" parent="978">
                    <mxGeometry x="10" y="12.5" width="70" height="40" as="geometry"/>
                </mxCell>
                <mxCell id="981" value="&lt;b&gt;&lt;font color=&quot;#345253&quot;&gt;index 02&lt;/font&gt;&lt;/b&gt;" style="shape=note;whiteSpace=wrap;html=1;backgroundOutline=1;darkOpacity=0.05;fontFamily=Tahoma;fontColor=#FFFFFF;strokeColor=#FFFFFF;strokeWidth=2;size=13;fillColor=#CAD9DF;rounded=1;" vertex="1" parent="978">
                    <mxGeometry x="90" y="12.5" width="70" height="40" as="geometry"/>
                </mxCell>
                <mxCell id="977" value="" style="group;rounded=1;" vertex="1" connectable="0" parent="1">
                    <mxGeometry x="180" y="372.5" width="170" height="65" as="geometry"/>
                </mxCell>
                <mxCell id="976" value="" style="whiteSpace=wrap;html=1;fontColor=#FFFFFF;strokeColor=none;fillColor=#EDF2F4;rounded=1;" vertex="1" parent="977">
                    <mxGeometry width="170" height="65" as="geometry"/>
                </mxCell>
                <mxCell id="945" value="&lt;b&gt;&lt;font color=&quot;#345253&quot;&gt;data 01&lt;/font&gt;&lt;/b&gt;" style="shape=note;whiteSpace=wrap;html=1;backgroundOutline=1;darkOpacity=0.05;fontFamily=Tahoma;fontColor=#FFFFFF;strokeWidth=2;size=13;strokeColor=#FFFFFF;fillColor=#FFD966;rounded=1;" vertex="1" parent="977">
                    <mxGeometry x="10" y="12.5" width="70" height="40" as="geometry"/>
                </mxCell>
                <mxCell id="946" value="&lt;b&gt;&lt;font color=&quot;#345253&quot;&gt;index 01&lt;/font&gt;&lt;/b&gt;" style="shape=note;whiteSpace=wrap;html=1;backgroundOutline=1;darkOpacity=0.05;fontFamily=Tahoma;fontColor=#FFFFFF;strokeColor=#FFFFFF;strokeWidth=2;size=13;fillColor=#CAD9DF;rounded=1;" vertex="1" parent="977">
                    <mxGeometry x="90" y="12.5" width="70" height="40" as="geometry"/>
                </mxCell>
                <mxCell id="875" value="&lt;span style=&quot;color: rgb(52 , 82 , 83) ; font-family: &amp;#34;tahoma&amp;#34; ; font-weight: 700&quot;&gt;Task 01&lt;/span&gt;" style="whiteSpace=wrap;html=1;dashed=1;fontFamily=Verdana;fontColor=#FFFFFF;strokeColor=none;fillColor=#EDF2F4;rounded=1;" parent="1" vertex="1">
                    <mxGeometry x="230" y="510" width="70" height="40" as="geometry"/>
                </mxCell>
                <mxCell id="982" value="" style="group;rounded=1;" vertex="1" connectable="0" parent="1">
                    <mxGeometry x="720" y="372.5" width="170" height="65" as="geometry"/>
                </mxCell>
                <mxCell id="983" value="" style="whiteSpace=wrap;html=1;fontColor=#FFFFFF;strokeColor=none;fillColor=#EDF2F4;rounded=1;" vertex="1" parent="982">
                    <mxGeometry width="170" height="65" as="geometry"/>
                </mxCell>
                <mxCell id="984" value="&lt;b&gt;&lt;font color=&quot;#345253&quot;&gt;data 03&lt;/font&gt;&lt;/b&gt;" style="shape=note;whiteSpace=wrap;html=1;backgroundOutline=1;darkOpacity=0.05;fontFamily=Tahoma;fontColor=#FFFFFF;strokeWidth=2;size=13;strokeColor=#FFFFFF;fillColor=#FFD966;rounded=1;" vertex="1" parent="982">
                    <mxGeometry x="10" y="12.5" width="70" height="40" as="geometry"/>
                </mxCell>
                <mxCell id="985" value="&lt;b&gt;&lt;font color=&quot;#345253&quot;&gt;index 03&lt;/font&gt;&lt;/b&gt;" style="shape=note;whiteSpace=wrap;html=1;backgroundOutline=1;darkOpacity=0.05;fontFamily=Tahoma;fontColor=#FFFFFF;strokeColor=#FFFFFF;strokeWidth=2;size=13;fillColor=#CAD9DF;rounded=1;" vertex="1" parent="982">
                    <mxGeometry x="90" y="12.5" width="70" height="40" as="geometry"/>
                </mxCell>
                <mxCell id="866" value="&lt;font color=&quot;#345253&quot;&gt;Task 01&lt;/font&gt;" style="whiteSpace=wrap;html=1;dashed=1;fontFamily=Tahoma;fontColor=#FFFFFF;strokeColor=none;fillColor=#EDF2F4;fontStyle=1;rounded=1;" parent="1" vertex="1">
                    <mxGeometry x="230" y="145" width="70" height="40" as="geometry"/>
                </mxCell>
                <mxCell id="867" value="&lt;span style=&quot;color: rgb(52 , 82 , 83) ; font-family: &amp;#34;tahoma&amp;#34; ; font-weight: 700&quot;&gt;Task 02&lt;/span&gt;" style="whiteSpace=wrap;html=1;dashed=1;fontFamily=Verdana;fontColor=#FFFFFF;strokeColor=none;fillColor=#EDF2F4;rounded=1;" parent="1" vertex="1">
                    <mxGeometry x="500" y="145" width="70" height="40" as="geometry"/>
                </mxCell>
                <mxCell id="868" value="&lt;span style=&quot;color: rgb(52 , 82 , 83) ; font-family: &amp;#34;tahoma&amp;#34; ; font-weight: 700&quot;&gt;Task 03&lt;/span&gt;" style="whiteSpace=wrap;html=1;dashed=1;fontFamily=Verdana;fontColor=#FFFFFF;strokeColor=none;fillColor=#EDF2F4;rounded=1;" parent="1" vertex="1">
                    <mxGeometry x="770" y="145" width="70" height="40" as="geometry"/>
                </mxCell>
                <mxCell id="933" value="&lt;font color=&quot;#000000&quot;&gt;&lt;b&gt;&lt;i&gt;map side&lt;/i&gt;&lt;/b&gt;&lt;/font&gt;" style="text;html=1;strokeColor=none;fillColor=none;align=center;verticalAlign=middle;whiteSpace=wrap;fontFamily=Tahoma;fontColor=#FFFFFF;rounded=1;" parent="1" vertex="1">
                    <mxGeometry x="485" y="100" width="100" height="20" as="geometry"/>
                </mxCell>
                <mxCell id="934" value="&lt;font color=&quot;#000000&quot;&gt;&lt;b&gt;&lt;i&gt;reduce side&lt;/i&gt;&lt;/b&gt;&lt;/font&gt;" style="text;html=1;strokeColor=none;fillColor=none;align=center;verticalAlign=middle;whiteSpace=wrap;fontFamily=Tahoma;fontColor=#FFFFFF;rounded=1;" parent="1" vertex="1">
                    <mxGeometry x="485" y="575" width="100" height="20" as="geometry"/>
                </mxCell>
                <mxCell id="957" value="&lt;span style=&quot;color: rgb(52 , 82 , 83) ; font-family: &amp;#34;tahoma&amp;#34; ; font-weight: 700&quot;&gt;Task 02&lt;/span&gt;" style="whiteSpace=wrap;html=1;dashed=1;fontFamily=Verdana;fontColor=#FFFFFF;strokeColor=none;fillColor=#EDF2F4;rounded=1;" vertex="1" parent="1">
                    <mxGeometry x="500" y="510" width="70" height="40" as="geometry"/>
                </mxCell>
                <mxCell id="958" value="&lt;span style=&quot;color: rgb(52 , 82 , 83) ; font-family: &amp;#34;tahoma&amp;#34; ; font-weight: 700&quot;&gt;Task 03&lt;/span&gt;" style="whiteSpace=wrap;html=1;dashed=1;fontFamily=Verdana;fontColor=#FFFFFF;strokeColor=none;fillColor=#EDF2F4;rounded=1;" vertex="1" parent="1">
                    <mxGeometry x="770" y="510" width="70" height="40" as="geometry"/>
                </mxCell>
                <mxCell id="993" style="edgeStyle=none;orthogonalLoop=1;jettySize=auto;html=1;exitX=0.5;exitY=1;exitDx=0;exitDy=0;exitPerimeter=0;entryX=0.5;entryY=0;entryDx=0;entryDy=0;fontColor=#000000;endArrow=oval;endFill=1;strokeColor=#999999;" edge="1" parent="1" source="950" target="979">
                    <mxGeometry relative="1" as="geometry"/>
                </mxCell>
                <mxCell id="950" value="&lt;b&gt;&lt;font color=&quot;#345253&quot;&gt;temp&lt;/font&gt;&lt;/b&gt;" style="shape=note;whiteSpace=wrap;html=1;backgroundOutline=1;darkOpacity=0.05;fontFamily=Tahoma;fontColor=#FFFFFF;strokeColor=#FFFFFF;strokeWidth=2;fillColor=#EDF2F4;size=13;rounded=1;" vertex="1" parent="1">
                    <mxGeometry x="500" y="265" width="70" height="40" as="geometry"/>
                </mxCell>
                <mxCell id="995" style="edgeStyle=none;orthogonalLoop=1;jettySize=auto;html=1;exitX=0.5;exitY=1;exitDx=0;exitDy=0;exitPerimeter=0;entryX=0.5;entryY=0;entryDx=0;entryDy=0;fontColor=#000000;endArrow=oval;endFill=1;strokeColor=#999999;" edge="1" parent="1" source="951" target="979">
                    <mxGeometry relative="1" as="geometry"/>
                </mxCell>
                <mxCell id="951" value="&lt;b&gt;&lt;font color=&quot;#345253&quot;&gt;temp&lt;/font&gt;&lt;/b&gt;" style="shape=note;whiteSpace=wrap;html=1;backgroundOutline=1;darkOpacity=0.05;fontFamily=Tahoma;fontColor=#FFFFFF;strokeColor=#FFFFFF;strokeWidth=2;fillColor=#EDF2F4;size=13;rounded=1;" vertex="1" parent="1">
                    <mxGeometry x="580" y="265" width="70" height="40" as="geometry"/>
                </mxCell>
                <mxCell id="990" style="edgeStyle=none;orthogonalLoop=1;jettySize=auto;html=1;exitX=0.5;exitY=1;exitDx=0;exitDy=0;exitPerimeter=0;entryX=0.5;entryY=0;entryDx=0;entryDy=0;fontColor=#000000;endArrow=oval;endFill=1;strokeColor=#999999;" edge="1" parent="1" source="952" target="979">
                    <mxGeometry relative="1" as="geometry"/>
                </mxCell>
                <mxCell id="952" value="&lt;b&gt;&lt;font color=&quot;#345253&quot;&gt;temp&lt;/font&gt;&lt;/b&gt;" style="shape=note;whiteSpace=wrap;html=1;backgroundOutline=1;darkOpacity=0.05;fontFamily=Tahoma;fontColor=#FFFFFF;strokeColor=#FFFFFF;strokeWidth=2;fillColor=#EDF2F4;size=13;rounded=1;" vertex="1" parent="1">
                    <mxGeometry x="420" y="265" width="70" height="40" as="geometry"/>
                </mxCell>
                <mxCell id="988" style="edgeStyle=none;orthogonalLoop=1;jettySize=auto;html=1;entryX=0.5;entryY=0;entryDx=0;entryDy=0;fontColor=#000000;endArrow=oval;endFill=1;strokeColor=#999999;" edge="1" parent="1" source="899" target="976">
                    <mxGeometry relative="1" as="geometry"/>
                </mxCell>
                <mxCell id="899" value="&lt;b&gt;&lt;font color=&quot;#345253&quot;&gt;temp&lt;/font&gt;&lt;/b&gt;" style="shape=note;whiteSpace=wrap;html=1;backgroundOutline=1;darkOpacity=0.05;fontFamily=Tahoma;fontColor=#FFFFFF;strokeColor=#FFFFFF;strokeWidth=2;fillColor=#EDF2F4;size=13;rounded=1;" parent="1" vertex="1">
                    <mxGeometry x="230" y="265" width="70" height="40" as="geometry"/>
                </mxCell>
                <mxCell id="989" style="edgeStyle=none;orthogonalLoop=1;jettySize=auto;html=1;exitX=0.5;exitY=1;exitDx=0;exitDy=0;exitPerimeter=0;entryX=0.5;entryY=0;entryDx=0;entryDy=0;fontColor=#000000;endArrow=oval;endFill=1;strokeColor=#999999;" edge="1" parent="1" source="900" target="976">
                    <mxGeometry relative="1" as="geometry"/>
                </mxCell>
                <mxCell id="900" value="&lt;b&gt;&lt;font color=&quot;#345253&quot;&gt;temp&lt;/font&gt;&lt;/b&gt;" style="shape=note;whiteSpace=wrap;html=1;backgroundOutline=1;darkOpacity=0.05;fontFamily=Tahoma;fontColor=#FFFFFF;strokeColor=#FFFFFF;strokeWidth=2;fillColor=#EDF2F4;size=13;rounded=1;" parent="1" vertex="1">
                    <mxGeometry x="310" y="265" width="70" height="40" as="geometry"/>
                </mxCell>
                <mxCell id="986" style="edgeStyle=none;orthogonalLoop=1;jettySize=auto;html=1;exitX=0.5;exitY=1;exitDx=0;exitDy=0;exitPerimeter=0;entryX=0.5;entryY=0;entryDx=0;entryDy=0;fontColor=#000000;endArrow=oval;endFill=1;strokeColor=#999999;" edge="1" parent="1" source="944" target="976">
                    <mxGeometry relative="1" as="geometry"/>
                </mxCell>
                <mxCell id="944" value="&lt;b&gt;&lt;font color=&quot;#345253&quot;&gt;temp&lt;/font&gt;&lt;/b&gt;" style="shape=note;whiteSpace=wrap;html=1;backgroundOutline=1;darkOpacity=0.05;fontFamily=Tahoma;fontColor=#FFFFFF;strokeColor=#FFFFFF;strokeWidth=2;fillColor=#EDF2F4;size=13;rounded=1;" vertex="1" parent="1">
                    <mxGeometry x="150" y="265" width="70" height="40" as="geometry"/>
                </mxCell>
                <mxCell id="998" style="edgeStyle=none;orthogonalLoop=1;jettySize=auto;html=1;exitX=0.5;exitY=1;exitDx=0;exitDy=0;exitPerimeter=0;fontColor=#000000;endArrow=oval;endFill=1;strokeColor=#999999;" edge="1" parent="1" source="954" target="983">
                    <mxGeometry relative="1" as="geometry"/>
                </mxCell>
                <mxCell id="954" value="&lt;b&gt;&lt;font color=&quot;#345253&quot;&gt;temp&lt;/font&gt;&lt;/b&gt;" style="shape=note;whiteSpace=wrap;html=1;backgroundOutline=1;darkOpacity=0.05;fontFamily=Tahoma;fontColor=#FFFFFF;strokeColor=#FFFFFF;strokeWidth=2;fillColor=#EDF2F4;size=13;rounded=1;" vertex="1" parent="1">
                    <mxGeometry x="770" y="265" width="70" height="40" as="geometry"/>
                </mxCell>
                <mxCell id="999" style="edgeStyle=none;orthogonalLoop=1;jettySize=auto;html=1;exitX=0.5;exitY=1;exitDx=0;exitDy=0;exitPerimeter=0;entryX=0.5;entryY=0;entryDx=0;entryDy=0;fontColor=#000000;endArrow=oval;endFill=1;strokeColor=#999999;" edge="1" parent="1" source="955" target="983">
                    <mxGeometry relative="1" as="geometry"/>
                </mxCell>
                <mxCell id="955" value="&lt;b&gt;&lt;font color=&quot;#345253&quot;&gt;temp&lt;/font&gt;&lt;/b&gt;" style="shape=note;whiteSpace=wrap;html=1;backgroundOutline=1;darkOpacity=0.05;fontFamily=Tahoma;fontColor=#FFFFFF;strokeColor=#FFFFFF;strokeWidth=2;fillColor=#EDF2F4;size=13;rounded=1;" vertex="1" parent="1">
                    <mxGeometry x="850" y="265" width="70" height="40" as="geometry"/>
                </mxCell>
                <mxCell id="996" style="edgeStyle=none;orthogonalLoop=1;jettySize=auto;html=1;exitX=0.5;exitY=1;exitDx=0;exitDy=0;exitPerimeter=0;entryX=0.5;entryY=0;entryDx=0;entryDy=0;fontColor=#000000;endArrow=oval;endFill=1;strokeColor=#999999;" edge="1" parent="1" source="956" target="983">
                    <mxGeometry relative="1" as="geometry"/>
                </mxCell>
                <mxCell id="956" value="&lt;b&gt;&lt;font color=&quot;#345253&quot;&gt;temp&lt;/font&gt;&lt;/b&gt;" style="shape=note;whiteSpace=wrap;html=1;backgroundOutline=1;darkOpacity=0.05;fontFamily=Tahoma;fontColor=#FFFFFF;strokeColor=#FFFFFF;strokeWidth=2;fillColor=#EDF2F4;size=13;rounded=1;" vertex="1" parent="1">
                    <mxGeometry x="690" y="265" width="70" height="40" as="geometry"/>
                </mxCell>
                <mxCell id="965" style="orthogonalLoop=1;jettySize=auto;html=1;entryX=0.5;entryY=0;entryDx=0;entryDy=0;entryPerimeter=0;exitX=0.5;exitY=1;exitDx=0;exitDy=0;endArrow=oval;endFill=1;strokeColor=#999999;" edge="1" parent="1" source="866" target="944">
                    <mxGeometry relative="1" as="geometry"/>
                </mxCell>
                <mxCell id="966" style="edgeStyle=none;orthogonalLoop=1;jettySize=auto;html=1;entryX=0.5;entryY=0;entryDx=0;entryDy=0;entryPerimeter=0;endArrow=oval;endFill=1;strokeColor=#999999;" edge="1" parent="1" source="866" target="899">
                    <mxGeometry relative="1" as="geometry"/>
                </mxCell>
                <mxCell id="967" style="edgeStyle=none;orthogonalLoop=1;jettySize=auto;html=1;exitX=0.5;exitY=1;exitDx=0;exitDy=0;entryX=0.5;entryY=0;entryDx=0;entryDy=0;entryPerimeter=0;endArrow=oval;endFill=1;strokeColor=#999999;" edge="1" parent="1" source="866" target="900">
                    <mxGeometry relative="1" as="geometry"/>
                </mxCell>
                <mxCell id="968" style="edgeStyle=none;orthogonalLoop=1;jettySize=auto;html=1;exitX=0.5;exitY=1;exitDx=0;exitDy=0;entryX=0.5;entryY=0;entryDx=0;entryDy=0;entryPerimeter=0;endArrow=oval;endFill=1;strokeColor=#999999;" edge="1" parent="1" source="867" target="952">
                    <mxGeometry relative="1" as="geometry"/>
                </mxCell>
                <mxCell id="969" style="edgeStyle=none;orthogonalLoop=1;jettySize=auto;html=1;exitX=0.5;exitY=1;exitDx=0;exitDy=0;entryX=0.5;entryY=0;entryDx=0;entryDy=0;entryPerimeter=0;endArrow=oval;endFill=1;strokeColor=#999999;" edge="1" parent="1" source="867" target="950">
                    <mxGeometry relative="1" as="geometry"/>
                </mxCell>
                <mxCell id="970" style="edgeStyle=none;orthogonalLoop=1;jettySize=auto;html=1;exitX=0.5;exitY=1;exitDx=0;exitDy=0;entryX=0.5;entryY=0;entryDx=0;entryDy=0;entryPerimeter=0;endArrow=oval;endFill=1;strokeColor=#999999;" edge="1" parent="1" source="867" target="951">
                    <mxGeometry relative="1" as="geometry"/>
                </mxCell>
                <mxCell id="971" style="edgeStyle=none;orthogonalLoop=1;jettySize=auto;html=1;exitX=0.5;exitY=1;exitDx=0;exitDy=0;entryX=0.5;entryY=0;entryDx=0;entryDy=0;entryPerimeter=0;endArrow=oval;endFill=1;strokeColor=#999999;" edge="1" parent="1" source="868" target="956">
                    <mxGeometry relative="1" as="geometry"/>
                </mxCell>
                <mxCell id="972" style="edgeStyle=none;orthogonalLoop=1;jettySize=auto;html=1;exitX=0.5;exitY=1;exitDx=0;exitDy=0;entryX=0.5;entryY=0;entryDx=0;entryDy=0;entryPerimeter=0;endArrow=oval;endFill=1;strokeColor=#999999;" edge="1" parent="1" source="868" target="954">
                    <mxGeometry relative="1" as="geometry"/>
                </mxCell>
                <mxCell id="973" style="edgeStyle=none;orthogonalLoop=1;jettySize=auto;html=1;exitX=0.5;exitY=1;exitDx=0;exitDy=0;entryX=0.5;entryY=0;entryDx=0;entryDy=0;entryPerimeter=0;endArrow=oval;endFill=1;strokeColor=#999999;" edge="1" parent="1" source="868" target="955">
                    <mxGeometry relative="1" as="geometry"/>
                </mxCell>
                <mxCell id="1000" style="orthogonalLoop=1;jettySize=auto;html=1;entryX=0.5;entryY=0;entryDx=0;entryDy=0;entryPerimeter=0;exitX=0.5;exitY=1;exitDx=0;exitDy=0;endArrow=oval;endFill=1;strokeColor=#999999;" edge="1" parent="1">
                    <mxGeometry relative="1" as="geometry">
                        <mxPoint x="265" y="185" as="sourcePoint"/>
                        <mxPoint x="185" y="265" as="targetPoint"/>
                    </mxGeometry>
                </mxCell>
                <mxCell id="1001" style="edgeStyle=none;orthogonalLoop=1;jettySize=auto;html=1;entryX=0.5;entryY=0;entryDx=0;entryDy=0;entryPerimeter=0;endArrow=oval;endFill=1;strokeColor=#999999;" edge="1" parent="1">
                    <mxGeometry relative="1" as="geometry">
                        <mxPoint x="265" y="185" as="sourcePoint"/>
                        <mxPoint x="265" y="265" as="targetPoint"/>
                    </mxGeometry>
                </mxCell>
                <mxCell id="1002" style="edgeStyle=none;orthogonalLoop=1;jettySize=auto;html=1;exitX=0.5;exitY=1;exitDx=0;exitDy=0;entryX=0.5;entryY=0;entryDx=0;entryDy=0;entryPerimeter=0;endArrow=oval;endFill=1;strokeColor=#999999;" edge="1" parent="1">
                    <mxGeometry relative="1" as="geometry">
                        <mxPoint x="265" y="185" as="sourcePoint"/>
                        <mxPoint x="345" y="265" as="targetPoint"/>
                    </mxGeometry>
                </mxCell>
                <mxCell id="1003" style="edgeStyle=none;orthogonalLoop=1;jettySize=auto;html=1;entryX=0.5;entryY=0;entryDx=0;entryDy=0;fontColor=#000000;endArrow=oval;endFill=1;strokeColor=#999999;" edge="1" parent="1" source="976" target="875">
                    <mxGeometry relative="1" as="geometry"/>
                </mxCell>
                <mxCell id="1004" style="edgeStyle=none;orthogonalLoop=1;jettySize=auto;html=1;exitX=0.5;exitY=1;exitDx=0;exitDy=0;entryX=0.5;entryY=0;entryDx=0;entryDy=0;fontColor=#000000;endArrow=oval;endFill=1;strokeColor=#999999;" edge="1" parent="1" source="979" target="875">
                    <mxGeometry relative="1" as="geometry"/>
                </mxCell>
                <mxCell id="1005" style="edgeStyle=none;orthogonalLoop=1;jettySize=auto;html=1;exitX=0.5;exitY=1;exitDx=0;exitDy=0;entryX=0.5;entryY=0;entryDx=0;entryDy=0;fontColor=#000000;endArrow=oval;endFill=1;strokeColor=#999999;" edge="1" parent="1" source="983" target="875">
                    <mxGeometry relative="1" as="geometry"/>
                </mxCell>
                <mxCell id="1006" style="edgeStyle=none;orthogonalLoop=1;jettySize=auto;html=1;exitX=0.5;exitY=1;exitDx=0;exitDy=0;entryX=0.5;entryY=0;entryDx=0;entryDy=0;fontColor=#000000;endArrow=oval;endFill=1;strokeColor=#999999;" edge="1" parent="1" source="976" target="957">
                    <mxGeometry relative="1" as="geometry"/>
                </mxCell>
                <mxCell id="1007" style="edgeStyle=none;orthogonalLoop=1;jettySize=auto;html=1;exitX=0.5;exitY=1;exitDx=0;exitDy=0;entryX=0.5;entryY=0;entryDx=0;entryDy=0;fontColor=#000000;endArrow=oval;endFill=1;strokeColor=#999999;" edge="1" parent="1" source="979" target="957">
                    <mxGeometry relative="1" as="geometry"/>
                </mxCell>
                <mxCell id="1008" style="edgeStyle=none;orthogonalLoop=1;jettySize=auto;html=1;exitX=0.5;exitY=1;exitDx=0;exitDy=0;entryX=0.5;entryY=0;entryDx=0;entryDy=0;fontColor=#000000;endArrow=oval;endFill=1;strokeColor=#999999;" edge="1" parent="1" source="983" target="957">
                    <mxGeometry relative="1" as="geometry"/>
                </mxCell>
                <mxCell id="1009" style="edgeStyle=none;orthogonalLoop=1;jettySize=auto;html=1;exitX=0.5;exitY=1;exitDx=0;exitDy=0;entryX=0.5;entryY=0;entryDx=0;entryDy=0;fontColor=#000000;endArrow=oval;endFill=1;strokeColor=#999999;" edge="1" parent="1" source="976" target="958">
                    <mxGeometry relative="1" as="geometry"/>
                </mxCell>
                <mxCell id="1010" style="edgeStyle=none;orthogonalLoop=1;jettySize=auto;html=1;exitX=0.5;exitY=1;exitDx=0;exitDy=0;entryX=0.5;entryY=0;entryDx=0;entryDy=0;fontColor=#000000;endArrow=oval;endFill=1;strokeColor=#999999;" edge="1" parent="1" source="979" target="958">
                    <mxGeometry relative="1" as="geometry"/>
                </mxCell>
                <mxCell id="1011" style="edgeStyle=none;orthogonalLoop=1;jettySize=auto;html=1;entryX=0.5;entryY=0;entryDx=0;entryDy=0;fontColor=#000000;endArrow=oval;endFill=1;strokeColor=#999999;" edge="1" parent="1" source="983" target="958">
                    <mxGeometry relative="1" as="geometry"/>
                </mxCell>
            </root>
        </mxGraphModel>
    </diagram>
</mxfile>